<svg xmlns="http://www.w3.org/2000/svg" width="1120.4840087890625" height="825.9714508056641" style="background: rgba(0, 0, 0, 0);"><rect width="100%" height="100%" fill="rgba(0,0,0,0)"/><g transform="translate(560.2420043945312,412.9857177734375) scale(1) translate(-13.282623291015625,-31.89228057861328)"><polyline points="188.6268482353313,-108.29967376208607 158.68594488629353,-152.75006983940813" stroke="#959aa1ff" stroke-width="1" fill="none"/><polygon points="155.05463172033564,-158.1411332494174 157.17972349858002,-148.72126143850414 162.9854840939746,-152.6319063864588" fill="#959aa1ff"/><text x="173.65639656081242" y="-133.5248718007471" text-anchor="middle" dominant-baseline="alphabetic" font-size="6" font-family="&quot;Open Sans&quot;, sans-serif" fill="#959aa1ff" transform="rotate(56.036575413379964,173.65639656081242,-130.5248718007471)"><tspan>FOLLOWS</tspan></text><polyline points="76.33713108545176,52.614563957357205 -125.71113599833862,39.434728301914134" stroke="#959aa1ff" stroke-width="1" fill="none"/><polygon points="-132.1973509018002,39.011625210324354 -123.44426270017097,43.090037515927975 -122.98861321692043,36.10488300450781" fill="#959aa1ff"/><text x="-24.68700245644343" y="43.02464612963567" text-anchor="middle" dominant-baseline="alphabetic" font-size="6" font-family="&quot;Open Sans&quot;, sans-serif" fill="#959aa1ff" transform="rotate(3.732180517311422,-24.68700245644343,46.02464612963567)"><tspan>FOLLOWS</tspan></text><polyline points="189.4402688640722,-60.74344289373722 125.81900236369069,26.973450149190832" stroke="#959aa1ff" stroke-width="1" fill="none"/><polygon points="122.0026705372499,32.235161980001706 130.12005174429686,27.004662736193225 124.45359284957745,22.89476692310315" fill="#959aa1ff"/><text x="157.62963561388145" y="-19.884996372273193" text-anchor="middle" dominant-baseline="alphabetic" font-size="6" font-family="&quot;Open Sans&quot;, sans-serif" fill="#959aa1ff" transform="rotate(-54.04653574476681,157.62963561388145,-16.884996372273193)"><tspan>FRIENDS</tspan></text><polyline points="-319.9640826891929,-34.758207778742964 -189.40018355217427,21.986235328375226" stroke="#959aa1ff" stroke-width="1" fill="none"/><polygon points="-183.43885311027577,24.577092206416573 -190.29792617242066,17.779804752721667 -193.08807973338827,24.199699074766208" fill="#959aa1ff"/><text x="-254.68213312068357" y="-9.385986225183869" text-anchor="middle" dominant-baseline="alphabetic" font-size="6" font-family="&quot;Open Sans&quot;, sans-serif" fill="#959aa1ff" transform="rotate(23.490272393334404,-254.68213312068357,-6.385986225183869)"><tspan>FRIENDS</tspan></text><polyline points="84.8407714712852,74.04097848686621 1.324384285022997,152.12930012906818" stroke="#959aa1ff" stroke-width="1" fill="none"/><polygon points="-3.4235117131086668,156.56861129082802 5.540896448328925,152.97843214276995 0.7600998125875789,147.8653133755512" fill="#959aa1ff"/><text x="43.0825778781541" y="110.0851393079672" text-anchor="middle" dominant-baseline="alphabetic" font-size="6" font-family="&quot;Open Sans&quot;, sans-serif" fill="#959aa1ff" transform="rotate(-43.076241897201,43.0825778781541,113.0851393079672)"><tspan>PUBLISHED</tspan></text><polyline points="-161.23393405254657,65.19305114889896 -177.2562066291105,211.68532090878463" stroke="#959aa1ff" stroke-width="1" fill="none"/><polygon points="-177.96291554970253,218.14678842797528 -173.5051437647032,209.5806766663378 -180.4636472469085,208.81960552108484" fill="#959aa1ff"/><text x="-169.24507034082853" y="135.4391860288418" text-anchor="middle" dominant-baseline="alphabetic" font-size="6" font-family="&quot;Open Sans&quot;, sans-serif" fill="#959aa1ff" transform="rotate(-83.75820910994842,-169.24507034082853,138.4391860288418)"><tspan>PUBLISHED</tspan></text><polyline points="137.45476716890767,-152.26969277391828 111.33613631805916,20.530067326625588" stroke="#959aa1ff" stroke-width="1" fill="none"/><polygon points="110.36469749832476,26.957065585495197 115.17045800350219,18.581227360763496 108.24907526318107,17.53506247797259" fill="#959aa1ff"/><text x="124.39545174348342" y="-68.86981272364635" text-anchor="middle" dominant-baseline="alphabetic" font-size="6" font-family="&quot;Open Sans&quot;, sans-serif" fill="#959aa1ff" transform="rotate(-81.40482219036491,124.39545174348342,-65.86981272364635)"><tspan>FOLLOWS</tspan></text><polyline points="-166.28616746078447,8.149319635902554 -196.23197014683734,-127.88644636240637" stroke="#959aa1ff" stroke-width="1" fill="none"/><polygon points="-197.6293699731519,-134.23445973080882 -199.1126697197023,-124.69245669885146 -192.2763476306535,-126.1973488194979" fill="#959aa1ff"/><text x="-181.25906880381092" y="-62.86856336325191" text-anchor="middle" dominant-baseline="alphabetic" font-size="6" font-family="&quot;Open Sans&quot;, sans-serif" fill="#959aa1ff" transform="rotate(77.5853768424255,-181.25906880381092,-59.86856336325191)"><tspan>FOLLOWS</tspan></text><polyline points="221.83782797848838,-60.71863148346869 275.8562678100196,26.0121750798558" stroke="#959aa1ff" stroke-width="1" fill="none"/><polygon points="279.29264218179816,31.52954140601029 277.5054749195726,22.03975567730023 271.5636957990985,25.740466539215614" fill="#959aa1ff"/><text x="248.847047894254" y="-20.353228201806445" text-anchor="middle" dominant-baseline="alphabetic" font-size="6" font-family="&quot;Open Sans&quot;, sans-serif" fill="#959aa1ff" transform="rotate(58.08416277388108,248.847047894254,-17.353228201806445)"><tspan>PUBLISHED</tspan></text><polyline points="-138.0639804787238,56.269666011789504 -46.56052218075836,149.65104446644546" stroke="#959aa1ff" stroke-width="1" fill="none"/><polygon points="-42.01124742907392,154.29368371946592 -45.810360564395204,145.41580450283826 -50.81012591380186,150.31502346619075" fill="#959aa1ff"/><text x="-92.31225132974109" y="99.96035523911748" text-anchor="middle" dominant-baseline="alphabetic" font-size="6" font-family="&quot;Open Sans&quot;, sans-serif" fill="#959aa1ff" transform="rotate(45.581947125126554,-92.31225132974109,102.96035523911748)"><tspan>LIKED</tspan></text><polyline points="-183.44753301739368,52.00360524509241 -302.85503432830865,123.44491857968995" stroke="#959aa1ff" stroke-width="1" fill="none"/><polygon points="-308.4329214038876,126.78215932199338 -298.9127173610765,125.16484210411575 -302.50666892971094,119.15788679195386" fill="#959aa1ff"/><text x="-243.15128367285115" y="84.72426191239119" text-anchor="middle" dominant-baseline="alphabetic" font-size="6" font-family="&quot;Open Sans&quot;, sans-serif" fill="#959aa1ff" transform="rotate(-30.892014293074954,-243.15128367285115,87.72426191239119)"><tspan>COMMENTED</tspan></text><polyline points="78.85992712524272,41.63982536692765 17.88138515179534,11.75434795969188" stroke="#959aa1ff" stroke-width="1" fill="none"/><polygon points="12.044674825932793,8.893786376371304 18.585971347646776,15.997407974895012 21.666576129684323,9.711719931658422" fill="#959aa1ff"/><text x="48.37065613851903" y="23.69708666330977" text-anchor="middle" dominant-baseline="alphabetic" font-size="6" font-family="&quot;Open Sans&quot;, sans-serif" fill="#959aa1ff" transform="rotate(26.109393762391086,48.37065613851903,26.69708666330977)"><tspan>COMMENTED</tspan></text><polyline points="177.27720675850287,-90.85236667687094 14.611880664761777,-131.4156390359513" stroke="#959aa1ff" stroke-width="1" fill="none"/><polygon points="8.30501534389171,-132.9883595528921 16.19074858674368,-127.4147421258902 17.884447604987614,-134.20675093298104" fill="#959aa1ff"/><text x="95.94454371163232" y="-114.13400285641112" text-anchor="middle" dominant-baseline="alphabetic" font-size="6" font-family="&quot;Open Sans&quot;, sans-serif" fill="#959aa1ff" transform="rotate(14.002073071465697,95.94454371163232,-111.13400285641112)"><tspan>BELONGS_TO</tspan></text><polyline points="116.8366989420058,80.14724493825325 166.34584276255993,206.71045294992703" stroke="#959aa1ff" stroke-width="1" fill="none"/><polygon points="168.7137918906715,212.76378401031647 168.69457905349594,203.10719916540947 162.17560714230729,205.6572982264527" fill="#959aa1ff"/><text x="141.59127085228286" y="140.42884894409013" text-anchor="middle" dominant-baseline="alphabetic" font-size="6" font-family="&quot;Open Sans&quot;, sans-serif" fill="#959aa1ff" transform="rotate(68.63549839095562,141.59127085228286,143.42884894409013)"><tspan>BELONGS_TO</tspan></text><polyline points="231.14282677660648,-98.68024392968687 343.120031818081,-154.72773928070453" stroke="#959aa1ff" stroke-width="1" fill="none"/><polygon points="348.93258523302546,-157.6370730185932 339.31787003039307,-156.7386012203328 342.45099867119626,-150.47892831193107" fill="#959aa1ff"/><text x="287.13142929734374" y="-129.7039916051957" text-anchor="middle" dominant-baseline="alphabetic" font-size="6" font-family="&quot;Open Sans&quot;, sans-serif" fill="#959aa1ff" transform="rotate(-26.58915323034356,287.13142929734374,-126.7039916051957)"><tspan>MEMBER_OF</tspan></text><polyline points="134.34768242412386,52.73223783872905 259.2268771593869,53.71335145342885" stroke="#959aa1ff" stroke-width="1" fill="none"/><polygon points="265.7266765636578,53.76441713896491 256.7544512191867,50.193818818230625 256.699457403994,57.19360279206086" fill="#959aa1ff"/><text x="196.7872797917554" y="50.22279464607895" text-anchor="middle" dominant-baseline="alphabetic" font-size="6" font-family="&quot;Open Sans&quot;, sans-serif" fill="#959aa1ff" transform="rotate(0.45013513194086857,196.7872797917554,53.22279464607895)"><tspan>LIKED</tspan></text><polyline points="-141.73761916823307,12.987907605896451 -39.3612224212121,-114.9590256229786" stroke="#959aa1ff" stroke-width="1" fill="none"/><polygon points="-35.300248694865175,-120.03430811698028 -43.65597981273106,-115.19367205485706 -38.19029097303694,-110.82031573417576" fill="#959aa1ff"/><text x="-90.54942079472258" y="-53.985559008541074" text-anchor="middle" dominant-baseline="alphabetic" font-size="6" font-family="&quot;Open Sans&quot;, sans-serif" fill="#959aa1ff" transform="rotate(-51.33504499887237,-90.54942079472258,-50.985559008541074)"><tspan>BELONGS_TO</tspan></text><g class="node" data-id="4:cd501b29-b553-4fe9-8053-26ccf044a247:4268"><circle cx="205.65748596191406" cy="-84.80590057373047" r="25" fill="#9fc67b"/><text x="205.65748596191406" y="-84.80590057373047" text-anchor="middle" dominant-baseline="auto" font-size="6.4935064935064934" font-family="&quot;Open Sans&quot;, sans-serif" fill="#1a1b1d"><tspan>Thiago</tspan></text><text x="205.65748596191406" y="-78.31239408022398" text-anchor="middle" dominant-baseline="auto" font-size="6.4935064935064934" font-family="&quot;Open Sans&quot;, sans-serif" fill="#1a1b1d"><tspan>Novais</tspan></text></g><g class="node" data-id="4:cd501b29-b553-4fe9-8053-26ccf044a247:4269"><circle cx="140.80010986328125" cy="-181.09344482421875" r="25" fill="#9fc67b"/><text x="140.80010986328125" y="-181.09344482421875" text-anchor="middle" dominant-baseline="auto" font-size="6.4935064935064934" font-family="&quot;Open Sans&quot;, sans-serif" fill="#1a1b1d"><tspan>Paula</tspan></text><text x="140.80010986328125" y="-174.59993833071226" text-anchor="middle" dominant-baseline="auto" font-size="6.4935064935064934" font-family="&quot;Open Sans&quot;, sans-serif" fill="#1a1b1d"><tspan>Salles</tspan></text></g><g class="node" data-id="4:cd501b29-b553-4fe9-8053-26ccf044a247:4270"><circle cx="-346.9593811035156" cy="-45.40028762817383" r="25" fill="#9fc67b"/><text x="-346.9593811035156" y="-45.40028762817383" text-anchor="middle" dominant-baseline="auto" font-size="6.4935064935064934" font-family="&quot;Open Sans&quot;, sans-serif" fill="#1a1b1d"><tspan>Maria</tspan></text><text x="-346.9593811035156" y="-38.906781134667334" text-anchor="middle" dominant-baseline="auto" font-size="6.4935064935064934" font-family="&quot;Open Sans&quot;, sans-serif" fill="#1a1b1d"><tspan>Lemos</tspan></text></g><g class="node" data-id="4:cd501b29-b553-4fe9-8053-26ccf044a247:4271"><circle cx="105.3407211303711" cy="53.50437545776367" r="25" fill="#9fc67b"/><text x="105.3407211303711" y="53.50437545776367" text-anchor="middle" dominant-baseline="auto" font-size="6.4935064935064934" font-family="&quot;Open Sans&quot;, sans-serif" fill="#1a1b1d"><tspan>Felipe</tspan></text><text x="105.3407211303711" y="59.997881951270166" text-anchor="middle" dominant-baseline="auto" font-size="6.4935064935064934" font-family="&quot;Open Sans&quot;, sans-serif" fill="#1a1b1d"><tspan>Silva</tspan></text></g><g class="node" data-id="4:cd501b29-b553-4fe9-8053-26ccf044a247:4272"><circle cx="-159.0749969482422" cy="36.25624084472656" r="25" fill="#9fc67b"/><text x="-159.0749969482422" y="36.25624084472656" text-anchor="middle" dominant-baseline="auto" font-size="6.4935064935064934" font-family="&quot;Open Sans&quot;, sans-serif" fill="#1a1b1d"><tspan>Eduardo</tspan></text><text x="-159.0749969482422" y="42.74974733823306" text-anchor="middle" dominant-baseline="auto" font-size="6.4935064935064934" font-family="&quot;Open Sans&quot;, sans-serif" fill="#1a1b1d"><tspan>Novais</tspan></text></g><g class="node" data-id="4:cd501b29-b553-4fe9-8053-26ccf044a247:4273"><circle cx="-202.45733642578125" cy="-160.818115234375" r="25" fill="#9fc67b"/><text x="-202.45733642578125" y="-160.818115234375" text-anchor="middle" dominant-baseline="auto" font-size="6.4935064935064934" font-family="&quot;Open Sans&quot;, sans-serif" fill="#1a1b1d"><tspan>Jaime</tspan></text><text x="-202.45733642578125" y="-154.3246087408685" text-anchor="middle" dominant-baseline="auto" font-size="6.4935064935064934" font-family="&quot;Open Sans&quot;, sans-serif" fill="#1a1b1d"><tspan>Santos</tspan></text></g><g class="node" data-id="4:cd501b29-b553-4fe9-8053-26ccf044a247:4278"><circle cx="-17.650775909423828" cy="-140.49148559570312" r="25" fill="#d2f9bd"/></g><g class="node" data-id="4:cd501b29-b553-4fe9-8053-26ccf044a247:4281"><circle cx="177.6186065673828" cy="238.27268981933594" r="25" fill="#d2f9bd"/></g><g class="node" data-id="4:cd501b29-b553-4fe9-8053-26ccf044a247:4282"><circle cx="373.5246276855469" cy="-168.8277587890625" r="25" fill="#7cc2ff"/></g><g class="node" data-id="4:cd501b29-b553-4fe9-8053-26ccf044a247:4285"><circle cx="292.7179870605469" cy="54.976505279541016" r="25" fill="#d79fce"/></g><g class="node" data-id="4:cd501b29-b553-4fe9-8053-26ccf044a247:4287"><circle cx="-332.11602783203125" cy="139.78640747070312" r="25" fill="#d79fce"/></g><g class="node" data-id="4:cd501b29-b553-4fe9-8053-26ccf044a247:4288"><circle cx="-23.82851219177246" cy="174.27838134765625" r="25" fill="#d79fce"/></g><g class="node" data-id="4:cd501b29-b553-4fe9-8053-26ccf044a247:4289"><circle cx="-181.89254760742188" cy="244.8780059814453" r="25" fill="#d79fce"/></g><g class="node" data-id="4:cd501b29-b553-4fe9-8053-26ccf044a247:4290"><circle cx="-11.760035514831543" cy="-3.8865017890930176" r="25" fill="#d79fce"/></g></g></svg>